<svg preserveAspectRatio="none" width="100%" height="100%" overflow="visible" style="display: block;" viewBox="0 0 868 855" fill="none" xmlns="http://www.w3.org/2000/svg">
<g id="Group 5">
<mask id="mask0_26_15" style="mask-type:alpha" maskUnits="userSpaceOnUse" x="146" y="236" width="514" height="219">
<ellipse id="Ellipse 5" cx="402.75" cy="345.25" rx="256.5" ry="109" fill="var(--fill-0, #D9D9D9)" fill-opacity="0.55"/>
</mask>
<g mask="url(#mask0_26_15)">
<g id="Group">
<path id="Vector" d="M66.9167 0.25H0.25V66.9167H66.9167V0.25Z" stroke="var(--stroke-0, white)" stroke-width="0.5"/>
<path id="Vector_2" d="M133.583 0.25H66.9167V66.9167H133.583V0.25Z" stroke="var(--stroke-0, white)" stroke-width="0.5"/>
<path id="Vector_3" d="M200.25 0.25H133.583V66.9167H200.25V0.25Z" stroke="var(--stroke-0, white)" stroke-width="0.5"/>
<path id="Vector_4" d="M266.917 0.25H200.25V66.9167H266.917V0.25Z" stroke="var(--stroke-0, white)" stroke-width="0.5"/>
<path id="Vector_5" d="M333.583 0.25H266.917V66.9167H333.583V0.25Z" stroke="var(--stroke-0, white)" stroke-width="0.5"/>
<path id="Vector_6" d="M400.25 0.25H333.583V66.9167H400.25V0.25Z" stroke="var(--stroke-0, white)" stroke-width="0.5"/>
<path id="Vector_7" d="M466.917 0.25H400.25V66.9167H466.917V0.25Z" stroke="var(--stroke-0, white)" stroke-width="0.5"/>
<path id="Vector_8" d="M533.583 0.25H466.917V66.9167H533.583V0.25Z" stroke="var(--stroke-0, white)" stroke-width="0.5"/>
<path id="Vector_9" d="M600.25 0.25H533.583V66.9167H600.25V0.25Z" stroke="var(--stroke-0, white)" stroke-width="0.5"/>
<path id="Vector_10" d="M666.917 0.25H600.25V66.9167H666.917V0.25Z" stroke="var(--stroke-0, white)" stroke-width="0.5"/>
<path id="Vector_11" d="M733.583 0.25H666.917V66.9167H733.583V0.25Z" stroke="var(--stroke-0, white)" stroke-width="0.5"/>
<path id="Vector_12" d="M800.25 0.25H733.583V66.9167H800.25V0.25Z" stroke="var(--stroke-0, white)" stroke-width="0.5"/>
<path id="Vector_13" d="M866.917 0.25H800.25V66.9167H866.917V0.25Z" stroke="var(--stroke-0, white)" stroke-width="0.5"/>
<path id="Vector_14" d="M66.9167 66.9167H0.25V133.583H66.9167V66.9167Z" stroke="var(--stroke-0, white)" stroke-width="0.5"/>
<path id="Vector_15" d="M133.583 66.9167H66.9167V133.583H133.583V66.9167Z" stroke="var(--stroke-0, white)" stroke-width="0.5"/>
<path id="Vector_16" d="M200.25 66.9167H133.583V133.583H200.25V66.9167Z" stroke="var(--stroke-0, white)" stroke-width="0.5"/>
<path id="Vector_17" d="M266.917 66.9167H200.25V133.583H266.917V66.9167Z" stroke="var(--stroke-0, white)" stroke-width="0.5"/>
<path id="Vector_18" d="M333.583 66.9167H266.917V133.583H333.583V66.9167Z" stroke="var(--stroke-0, white)" stroke-width="0.5"/>
<path id="Vector_19" d="M400.25 66.9167H333.583V133.583H400.25V66.9167Z" stroke="var(--stroke-0, white)" stroke-width="0.5"/>
<path id="Vector_20" d="M466.917 66.9167H400.25V133.583H466.917V66.9167Z" stroke="var(--stroke-0, white)" stroke-width="0.5"/>
<path id="Vector_21" d="M533.583 66.9167H466.917V133.583H533.583V66.9167Z" stroke="var(--stroke-0, white)" stroke-width="0.5"/>
<path id="Vector_22" d="M600.25 66.9167H533.583V133.583H600.25V66.9167Z" stroke="var(--stroke-0, white)" stroke-width="0.5"/>
<path id="Vector_23" d="M666.917 66.9167H600.25V133.583H666.917V66.9167Z" stroke="var(--stroke-0, white)" stroke-width="0.5"/>
<path id="Vector_24" d="M733.583 66.9167H666.917V133.583H733.583V66.9167Z" stroke="var(--stroke-0, white)" stroke-width="0.5"/>
<path id="Vector_25" d="M800.25 66.9167H733.583V133.583H800.25V66.9167Z" stroke="var(--stroke-0, white)" stroke-width="0.5"/>
<path id="Vector_26" d="M866.917 66.9167H800.25V133.583H866.917V66.9167Z" stroke="var(--stroke-0, white)" stroke-width="0.5"/>
<path id="Vector_27" d="M66.9167 133.583H0.25V200.25H66.9167V133.583Z" stroke="var(--stroke-0, white)" stroke-width="0.5"/>
<path id="Vector_28" d="M133.583 133.583H66.9167V200.25H133.583V133.583Z" stroke="var(--stroke-0, white)" stroke-width="0.5"/>
<path id="Vector_29" d="M200.25 133.583H133.583V200.25H200.25V133.583Z" stroke="var(--stroke-0, white)" stroke-width="0.5"/>
<path id="Vector_30" d="M266.917 133.583H200.25V200.25H266.917V133.583Z" stroke="var(--stroke-0, white)" stroke-width="0.5"/>
<path id="Vector_31" d="M333.583 133.583H266.917V200.25H333.583V133.583Z" stroke="var(--stroke-0, white)" stroke-width="0.5"/>
<path id="Vector_32" d="M400.25 133.583H333.583V200.25H400.25V133.583Z" stroke="var(--stroke-0, white)" stroke-width="0.5"/>
<path id="Vector_33" d="M466.917 133.583H400.25V200.25H466.917V133.583Z" stroke="var(--stroke-0, white)" stroke-width="0.5"/>
<path id="Vector_34" d="M533.583 133.583H466.917V200.25H533.583V133.583Z" stroke="var(--stroke-0, white)" stroke-width="0.5"/>
<path id="Vector_35" d="M600.25 133.583H533.583V200.25H600.25V133.583Z" stroke="var(--stroke-0, white)" stroke-width="0.5"/>
<path id="Vector_36" d="M666.917 133.583H600.25V200.25H666.917V133.583Z" stroke="var(--stroke-0, white)" stroke-width="0.5"/>
<path id="Vector_37" d="M733.583 133.583H666.917V200.25H733.583V133.583Z" stroke="var(--stroke-0, white)" stroke-width="0.5"/>
<path id="Vector_38" d="M800.25 133.583H733.583V200.25H800.25V133.583Z" stroke="var(--stroke-0, white)" stroke-width="0.5"/>
<path id="Vector_39" d="M866.917 133.583H800.25V200.25H866.917V133.583Z" stroke="var(--stroke-0, white)" stroke-width="0.5"/>
<path id="Vector_40" d="M66.9167 200.25H0.25V266.917H66.9167V200.25Z" stroke="var(--stroke-0, white)" stroke-width="0.5"/>
<path id="Vector_41" d="M133.583 200.25H66.9167V266.917H133.583V200.25Z" stroke="var(--stroke-0, white)" stroke-width="0.5"/>
<path id="Vector_42" d="M200.25 200.25H133.583V266.917H200.25V200.25Z" stroke="var(--stroke-0, white)" stroke-width="0.5"/>
<path id="Vector_43" d="M266.917 200.25H200.25V266.917H266.917V200.25Z" stroke="var(--stroke-0, white)" stroke-width="0.5"/>
<path id="Vector_44" d="M333.583 200.25H266.917V266.917H333.583V200.25Z" stroke="var(--stroke-0, white)" stroke-width="0.5"/>
<path id="Vector_45" d="M400.25 200.25H333.583V266.917H400.25V200.25Z" stroke="var(--stroke-0, white)" stroke-width="0.5"/>
<path id="Vector_46" d="M466.917 200.25H400.25V266.917H466.917V200.25Z" stroke="var(--stroke-0, white)" stroke-width="0.5"/>
<path id="Vector_47" d="M533.583 200.25H466.917V266.917H533.583V200.25Z" stroke="var(--stroke-0, white)" stroke-width="0.5"/>
<path id="Vector_48" d="M600.25 200.25H533.583V266.917H600.25V200.25Z" stroke="var(--stroke-0, white)" stroke-width="0.5"/>
<path id="Vector_49" d="M666.917 200.25H600.25V266.917H666.917V200.25Z" stroke="var(--stroke-0, white)" stroke-width="0.5"/>
<path id="Vector_50" d="M733.583 200.25H666.917V266.917H733.583V200.25Z" stroke="var(--stroke-0, white)" stroke-width="0.5"/>
<path id="Vector_51" d="M800.25 200.25H733.583V266.917H800.25V200.25Z" stroke="var(--stroke-0, white)" stroke-width="0.5"/>
<path id="Vector_52" d="M866.917 200.25H800.25V266.917H866.917V200.25Z" stroke="var(--stroke-0, white)" stroke-width="0.5"/>
<path id="Vector_53" d="M66.9167 266.917H0.25V333.583H66.9167V266.917Z" stroke="var(--stroke-0, white)" stroke-width="0.5"/>
<path id="Vector_54" d="M133.583 266.917H66.9167V333.583H133.583V266.917Z" stroke="var(--stroke-0, white)" stroke-width="0.5"/>
<path id="Vector_55" d="M200.25 266.917H133.583V333.583H200.25V266.917Z" stroke="var(--stroke-0, white)" stroke-width="0.5"/>
<path id="Vector_56" d="M266.917 266.917H200.25V333.583H266.917V266.917Z" stroke="var(--stroke-0, white)" stroke-width="0.5"/>
<path id="Vector_57" d="M333.583 266.917H266.917V333.583H333.583V266.917Z" stroke="var(--stroke-0, white)" stroke-width="0.5"/>
<path id="Vector_58" d="M400.25 266.917H333.583V333.583H400.25V266.917Z" stroke="var(--stroke-0, white)" stroke-width="0.5"/>
<path id="Vector_59" d="M466.917 266.917H400.25V333.583H466.917V266.917Z" stroke="var(--stroke-0, white)" stroke-width="0.5"/>
<path id="Vector_60" d="M533.583 266.917H466.917V333.583H533.583V266.917Z" stroke="var(--stroke-0, white)" stroke-width="0.5"/>
<path id="Vector_61" d="M600.25 266.917H533.583V333.583H600.25V266.917Z" stroke="var(--stroke-0, white)" stroke-width="0.5"/>
<path id="Vector_62" d="M666.917 266.917H600.25V333.583H666.917V266.917Z" stroke="var(--stroke-0, white)" stroke-width="0.5"/>
<path id="Vector_63" d="M733.583 266.917H666.917V333.583H733.583V266.917Z" stroke="var(--stroke-0, white)" stroke-width="0.5"/>
<path id="Vector_64" d="M800.25 266.917H733.583V333.583H800.25V266.917Z" stroke="var(--stroke-0, white)" stroke-width="0.5"/>
<path id="Vector_65" d="M866.917 266.917H800.25V333.583H866.917V266.917Z" stroke="var(--stroke-0, white)" stroke-width="0.5"/>
<path id="Vector_66" d="M66.9167 333.583H0.25V400.25H66.9167V333.583Z" stroke="var(--stroke-0, white)" stroke-width="0.5"/>
<path id="Vector_67" d="M133.583 333.583H66.9167V400.25H133.583V333.583Z" stroke="var(--stroke-0, white)" stroke-width="0.5"/>
<path id="Vector_68" d="M200.25 333.583H133.583V400.25H200.25V333.583Z" stroke="var(--stroke-0, white)" stroke-width="0.5"/>
<path id="Vector_69" d="M266.917 333.583H200.25V400.25H266.917V333.583Z" stroke="var(--stroke-0, white)" stroke-width="0.5"/>
<path id="Vector_70" d="M333.583 333.583H266.917V400.25H333.583V333.583Z" stroke="var(--stroke-0, white)" stroke-width="0.5"/>
<path id="Vector_71" d="M400.25 333.583H333.583V400.25H400.25V333.583Z" stroke="var(--stroke-0, white)" stroke-width="0.5"/>
<path id="Vector_72" d="M466.917 333.583H400.25V400.25H466.917V333.583Z" stroke="var(--stroke-0, white)" stroke-width="0.5"/>
<path id="Vector_73" d="M533.583 333.583H466.917V400.25H533.583V333.583Z" stroke="var(--stroke-0, white)" stroke-width="0.5"/>
<path id="Vector_74" d="M600.25 333.583H533.583V400.25H600.25V333.583Z" stroke="var(--stroke-0, white)" stroke-width="0.5"/>
<path id="Vector_75" d="M666.917 333.583H600.25V400.25H666.917V333.583Z" stroke="var(--stroke-0, white)" stroke-width="0.5"/>
<path id="Vector_76" d="M733.583 333.583H666.917V400.25H733.583V333.583Z" stroke="var(--stroke-0, white)" stroke-width="0.5"/>
<path id="Vector_77" d="M800.25 333.583H733.583V400.25H800.25V333.583Z" stroke="var(--stroke-0, white)" stroke-width="0.5"/>
<path id="Vector_78" d="M866.917 333.583H800.25V400.25H866.917V333.583Z" stroke="var(--stroke-0, white)" stroke-width="0.5"/>
<path id="Vector_79" d="M66.9167 400.25H0.25V466.917H66.9167V400.25Z" stroke="var(--stroke-0, white)" stroke-width="0.5"/>
<path id="Vector_80" d="M133.583 400.25H66.9167V466.917H133.583V400.25Z" stroke="var(--stroke-0, white)" stroke-width="0.5"/>
<path id="Vector_81" d="M200.25 400.25H133.583V466.917H200.25V400.25Z" stroke="var(--stroke-0, white)" stroke-width="0.5"/>
<path id="Vector_82" d="M266.917 400.25H200.25V466.917H266.917V400.25Z" stroke="var(--stroke-0, white)" stroke-width="0.5"/>
<path id="Vector_83" d="M333.583 400.25H266.917V466.917H333.583V400.25Z" stroke="var(--stroke-0, white)" stroke-width="0.5"/>
<path id="Vector_84" d="M400.25 400.25H333.583V466.917H400.25V400.25Z" stroke="var(--stroke-0, white)" stroke-width="0.5"/>
<path id="Vector_85" d="M466.917 400.25H400.25V466.917H466.917V400.25Z" stroke="var(--stroke-0, white)" stroke-width="0.5"/>
<path id="Vector_86" d="M533.583 400.25H466.917V466.917H533.583V400.25Z" stroke="var(--stroke-0, white)" stroke-width="0.5"/>
<path id="Vector_87" d="M600.25 400.25H533.583V466.917H600.25V400.25Z" stroke="var(--stroke-0, white)" stroke-width="0.5"/>
<path id="Vector_88" d="M666.917 400.25H600.25V466.917H666.917V400.25Z" stroke="var(--stroke-0, white)" stroke-width="0.5"/>
<path id="Vector_89" d="M733.583 400.25H666.917V466.917H733.583V400.25Z" stroke="var(--stroke-0, white)" stroke-width="0.5"/>
<path id="Vector_90" d="M800.25 400.25H733.583V466.917H800.25V400.25Z" stroke="var(--stroke-0, white)" stroke-width="0.5"/>
<path id="Vector_91" d="M866.917 400.25H800.25V466.917H866.917V400.25Z" stroke="var(--stroke-0, white)" stroke-width="0.5"/>
<path id="Vector_92" d="M66.9167 466.917H0.25V533.583H66.9167V466.917Z" stroke="var(--stroke-0, white)" stroke-width="0.5"/>
<path id="Vector_93" d="M133.583 466.917H66.9167V533.583H133.583V466.917Z" stroke="var(--stroke-0, white)" stroke-width="0.5"/>
<path id="Vector_94" d="M200.25 466.917H133.583V533.583H200.25V466.917Z" stroke="var(--stroke-0, white)" stroke-width="0.5"/>
<path id="Vector_95" d="M266.917 466.917H200.25V533.583H266.917V466.917Z" stroke="var(--stroke-0, white)" stroke-width="0.5"/>
<path id="Vector_96" d="M333.583 466.917H266.917V533.583H333.583V466.917Z" stroke="var(--stroke-0, white)" stroke-width="0.5"/>
<path id="Vector_97" d="M400.25 466.917H333.583V533.583H400.25V466.917Z" stroke="var(--stroke-0, white)" stroke-width="0.5"/>
<path id="Vector_98" d="M466.917 466.917H400.25V533.583H466.917V466.917Z" stroke="var(--stroke-0, white)" stroke-width="0.5"/>
<path id="Vector_99" d="M533.583 466.917H466.917V533.583H533.583V466.917Z" stroke="var(--stroke-0, white)" stroke-width="0.5"/>
<path id="Vector_100" d="M600.25 466.917H533.583V533.583H600.25V466.917Z" stroke="var(--stroke-0, white)" stroke-width="0.5"/>
<path id="Vector_101" d="M666.917 466.917H600.25V533.583H666.917V466.917Z" stroke="var(--stroke-0, white)" stroke-width="0.5"/>
<path id="Vector_102" d="M733.583 466.917H666.917V533.583H733.583V466.917Z" stroke="var(--stroke-0, white)" stroke-width="0.5"/>
<path id="Vector_103" d="M800.25 466.917H733.583V533.583H800.25V466.917Z" stroke="var(--stroke-0, white)" stroke-width="0.5"/>
<path id="Vector_104" d="M866.917 466.917H800.25V533.583H866.917V466.917Z" stroke="var(--stroke-0, white)" stroke-width="0.5"/>
<path id="Vector_105" d="M66.9167 533.583H0.25V600.25H66.9167V533.583Z" stroke="var(--stroke-0, white)" stroke-width="0.5"/>
<path id="Vector_106" d="M133.583 533.583H66.9167V600.25H133.583V533.583Z" stroke="var(--stroke-0, white)" stroke-width="0.5"/>
<path id="Vector_107" d="M200.25 533.583H133.583V600.25H200.25V533.583Z" stroke="var(--stroke-0, white)" stroke-width="0.5"/>
<path id="Vector_108" d="M266.917 533.583H200.25V600.25H266.917V533.583Z" stroke="var(--stroke-0, white)" stroke-width="0.5"/>
<path id="Vector_109" d="M333.583 533.583H266.917V600.25H333.583V533.583Z" stroke="var(--stroke-0, white)" stroke-width="0.5"/>
<path id="Vector_110" d="M400.25 533.583H333.583V600.25H400.25V533.583Z" stroke="var(--stroke-0, white)" stroke-width="0.5"/>
<path id="Vector_111" d="M466.917 533.583H400.25V600.25H466.917V533.583Z" stroke="var(--stroke-0, white)" stroke-width="0.5"/>
<path id="Vector_112" d="M533.583 533.583H466.917V600.25H533.583V533.583Z" stroke="var(--stroke-0, white)" stroke-width="0.5"/>
<path id="Vector_113" d="M600.25 533.583H533.583V600.25H600.25V533.583Z" stroke="var(--stroke-0, white)" stroke-width="0.5"/>
<path id="Vector_114" d="M666.917 533.583H600.25V600.25H666.917V533.583Z" stroke="var(--stroke-0, white)" stroke-width="0.5"/>
<path id="Vector_115" d="M733.583 533.583H666.917V600.25H733.583V533.583Z" stroke="var(--stroke-0, white)" stroke-width="0.5"/>
<path id="Vector_116" d="M800.25 533.583H733.583V600.25H800.25V533.583Z" stroke="var(--stroke-0, white)" stroke-width="0.5"/>
<path id="Vector_117" d="M866.917 533.583H800.25V600.25H866.917V533.583Z" stroke="var(--stroke-0, white)" stroke-width="0.5"/>
<path id="Vector_118" d="M66.9167 600.25H0.25V666.917H66.9167V600.25Z" stroke="var(--stroke-0, white)" stroke-width="0.5"/>
<path id="Vector_119" d="M133.583 600.25H66.9167V666.917H133.583V600.25Z" stroke="var(--stroke-0, white)" stroke-width="0.5"/>
<path id="Vector_120" d="M200.25 600.25H133.583V666.917H200.25V600.25Z" stroke="var(--stroke-0, white)" stroke-width="0.5"/>
<path id="Vector_121" d="M266.917 600.25H200.25V666.917H266.917V600.25Z" stroke="var(--stroke-0, white)" stroke-width="0.5"/>
<path id="Vector_122" d="M333.583 600.25H266.917V666.917H333.583V600.25Z" stroke="var(--stroke-0, white)" stroke-width="0.5"/>
<path id="Vector_123" d="M400.25 600.25H333.583V666.917H400.25V600.25Z" stroke="var(--stroke-0, white)" stroke-width="0.5"/>
<path id="Vector_124" d="M466.917 600.25H400.25V666.917H466.917V600.25Z" stroke="var(--stroke-0, white)" stroke-width="0.5"/>
<path id="Vector_125" d="M533.583 600.25H466.917V666.917H533.583V600.25Z" stroke="var(--stroke-0, white)" stroke-width="0.5"/>
<path id="Vector_126" d="M600.25 600.25H533.583V666.917H600.25V600.25Z" stroke="var(--stroke-0, white)" stroke-width="0.5"/>
<path id="Vector_127" d="M666.917 600.25H600.25V666.917H666.917V600.25Z" stroke="var(--stroke-0, white)" stroke-width="0.5"/>
<path id="Vector_128" d="M733.583 600.25H666.917V666.917H733.583V600.25Z" stroke="var(--stroke-0, white)" stroke-width="0.5"/>
<path id="Vector_129" d="M800.25 600.25H733.583V666.917H800.25V600.25Z" stroke="var(--stroke-0, white)" stroke-width="0.5"/>
<path id="Vector_130" d="M866.917 600.25H800.25V666.917H866.917V600.25Z" stroke="var(--stroke-0, white)" stroke-width="0.5"/>
<path id="Vector_131" d="M66.9167 666.917H0.25V733.583H66.9167V666.917Z" stroke="var(--stroke-0, white)" stroke-width="0.5"/>
<path id="Vector_132" d="M133.583 666.917H66.9167V733.583H133.583V666.917Z" stroke="var(--stroke-0, white)" stroke-width="0.5"/>
<path id="Vector_133" d="M200.25 666.917H133.583V733.583H200.25V666.917Z" stroke="var(--stroke-0, white)" stroke-width="0.5"/>
<path id="Vector_134" d="M266.917 666.917H200.25V733.583H266.917V666.917Z" stroke="var(--stroke-0, white)" stroke-width="0.5"/>
<path id="Vector_135" d="M333.583 666.917H266.917V733.583H333.583V666.917Z" stroke="var(--stroke-0, white)" stroke-width="0.5"/>
<path id="Vector_136" d="M400.25 666.917H333.583V733.583H400.25V666.917Z" stroke="var(--stroke-0, white)" stroke-width="0.5"/>
<path id="Vector_137" d="M466.917 666.917H400.25V733.583H466.917V666.917Z" stroke="var(--stroke-0, white)" stroke-width="0.5"/>
<path id="Vector_138" d="M533.583 666.917H466.917V733.583H533.583V666.917Z" stroke="var(--stroke-0, white)" stroke-width="0.5"/>
<path id="Vector_139" d="M600.25 666.917H533.583V733.583H600.25V666.917Z" stroke="var(--stroke-0, white)" stroke-width="0.5"/>
<path id="Vector_140" d="M666.917 666.917H600.25V733.583H666.917V666.917Z" stroke="var(--stroke-0, white)" stroke-width="0.5"/>
<path id="Vector_141" d="M733.583 666.917H666.917V733.583H733.583V666.917Z" stroke="var(--stroke-0, white)" stroke-width="0.5"/>
<path id="Vector_142" d="M800.25 666.917H733.583V733.583H800.25V666.917Z" stroke="var(--stroke-0, white)" stroke-width="0.5"/>
<path id="Vector_143" d="M866.917 666.917H800.25V733.583H866.917V666.917Z" stroke="var(--stroke-0, white)" stroke-width="0.5"/>
<path id="Vector_144" d="M66.9167 733.583H0.25V800.25H66.9167V733.583Z" stroke="var(--stroke-0, white)" stroke-width="0.5"/>
<path id="Vector_145" d="M133.583 733.583H66.9167V800.25H133.583V733.583Z" stroke="var(--stroke-0, white)" stroke-width="0.5"/>
<path id="Vector_146" d="M200.25 733.583H133.583V800.25H200.25V733.583Z" stroke="var(--stroke-0, white)" stroke-width="0.5"/>
<path id="Vector_147" d="M266.917 733.583H200.25V800.25H266.917V733.583Z" stroke="var(--stroke-0, white)" stroke-width="0.5"/>
<path id="Vector_148" d="M333.583 733.583H266.917V800.25H333.583V733.583Z" stroke="var(--stroke-0, white)" stroke-width="0.5"/>
<path id="Vector_149" d="M400.25 733.583H333.583V800.25H400.25V733.583Z" stroke="var(--stroke-0, white)" stroke-width="0.5"/>
<path id="Vector_150" d="M466.917 733.583H400.25V800.25H466.917V733.583Z" stroke="var(--stroke-0, white)" stroke-width="0.5"/>
<path id="Vector_151" d="M533.583 733.583H466.917V800.25H533.583V733.583Z" stroke="var(--stroke-0, white)" stroke-width="0.5"/>
<path id="Vector_152" d="M600.25 733.583H533.583V800.25H600.25V733.583Z" stroke="var(--stroke-0, white)" stroke-width="0.5"/>
<path id="Vector_153" d="M666.917 733.583H600.25V800.25H666.917V733.583Z" stroke="var(--stroke-0, white)" stroke-width="0.5"/>
<path id="Vector_154" d="M733.583 733.583H666.917V800.25H733.583V733.583Z" stroke="var(--stroke-0, white)" stroke-width="0.5"/>
<path id="Vector_155" d="M800.25 733.583H733.583V800.25H800.25V733.583Z" stroke="var(--stroke-0, white)" stroke-width="0.5"/>
<path id="Vector_156" d="M866.917 733.583H800.25V800.25H866.917V733.583Z" stroke="var(--stroke-0, white)" stroke-width="0.5"/>
<path id="Vector_157" d="M66.9167 800.25H0.25V866.917H66.9167V800.25Z" stroke="var(--stroke-0, white)" stroke-width="0.5"/>
<path id="Vector_158" d="M133.583 800.25H66.9167V866.917H133.583V800.25Z" stroke="var(--stroke-0, white)" stroke-width="0.5"/>
<path id="Vector_159" d="M200.25 800.25H133.583V866.917H200.25V800.25Z" stroke="var(--stroke-0, white)" stroke-width="0.5"/>
<path id="Vector_160" d="M266.917 800.25H200.25V866.917H266.917V800.25Z" stroke="var(--stroke-0, white)" stroke-width="0.5"/>
<path id="Vector_161" d="M333.583 800.25H266.917V866.917H333.583V800.25Z" stroke="var(--stroke-0, white)" stroke-width="0.5"/>
<path id="Vector_162" d="M400.25 800.25H333.583V866.917H400.25V800.25Z" stroke="var(--stroke-0, white)" stroke-width="0.5"/>
<path id="Vector_163" d="M466.917 800.25H400.25V866.917H466.917V800.25Z" stroke="var(--stroke-0, white)" stroke-width="0.5"/>
<path id="Vector_164" d="M533.583 800.25H466.917V866.917H533.583V800.25Z" stroke="var(--stroke-0, white)" stroke-width="0.5"/>
<path id="Vector_165" d="M600.25 800.25H533.583V866.917H600.25V800.25Z" stroke="var(--stroke-0, white)" stroke-width="0.5"/>
<path id="Vector_166" d="M666.917 800.25H600.25V866.917H666.917V800.25Z" stroke="var(--stroke-0, white)" stroke-width="0.5"/>
<path id="Vector_167" d="M733.583 800.25H666.917V866.917H733.583V800.25Z" stroke="var(--stroke-0, white)" stroke-width="0.5"/>
<path id="Vector_168" d="M800.25 800.25H733.583V866.917H800.25V800.25Z" stroke="var(--stroke-0, white)" stroke-width="0.5"/>
<path id="Vector_169" d="M866.917 800.25H800.25V866.917H866.917V800.25Z" stroke="var(--stroke-0, white)" stroke-width="0.5"/>
</g>
</g>
</g>
</svg>
