<svg preserveAspectRatio="none" width="100%" height="100%" overflow="visible" style="display: block;" viewBox="0 0 53 59" fill="none" xmlns="http://www.w3.org/2000/svg">
<path id="Vector" d="M38.8402 0C47.9356 0 53 5.251 53 14.2485V44.722C53 53.867 47.9356 59 38.8402 59H14.1628C5.21167 59 0 53.867 0 44.722V14.2485C0 5.251 5.21167 0 14.1628 0H38.8402ZM14.9578 40.533C14.0744 40.4445 13.2206 40.8575 12.7494 41.6245C12.2783 42.362 12.2783 43.3355 12.7494 44.1025C13.2206 44.84 14.0744 45.2825 14.9578 45.1645H38.0422C39.2171 45.0465 40.1033 44.0405 40.1033 42.8635C40.1033 41.654 39.2171 40.651 38.0422 40.533H14.9578ZM38.0422 27.0781H14.9578C13.6887 27.0781 12.6611 28.1135 12.6611 29.382C12.6611 30.6505 13.6887 31.683 14.9578 31.683H38.0422C39.3083 31.683 40.3389 30.6505 40.3389 29.382C40.3389 28.1135 39.3083 27.0781 38.0422 27.0781ZM23.7587 13.7175H14.9578V13.747C13.6887 13.747 12.6611 14.7795 12.6611 16.048C12.6611 17.3165 13.6887 18.349 14.9578 18.349H23.7587C25.0278 18.349 26.0583 17.3165 26.0583 16.0155C26.0583 14.75 25.0278 13.7175 23.7587 13.7175Z" fill="var(--fill-0, white)"/>
</svg>
