<svg preserveAspectRatio="none" width="100%" height="100%" overflow="visible" style="display: block;" viewBox="0 0 74 62" fill="none" xmlns="http://www.w3.org/2000/svg">
<path id="Vector" d="M73.3063 36.4842H72.9594L64.4031 16.7412C65.0969 16.1639 65.4437 15.4711 65.4437 14.6629C65.4437 13.162 64.1719 11.892 62.6688 11.892C62.0906 11.892 61.6281 12.0074 61.05 12.3538C55.9625 9.81378 51.5687 8.54376 47.9844 8.54376C46.25 8.54376 44.7469 8.89013 43.3594 9.35196C42.55 9.69832 41.7406 10.1601 41.0469 10.7374C40.3531 9.92924 39.4281 9.46741 38.5031 9.12104L38.3875 1.50093C38.3875 0.692738 37.6937 0 36.8844 0C36.075 0 35.3813 0.692738 35.3813 1.50093L35.2656 9.12104C34.225 9.35196 33.4156 9.92924 32.7219 10.7374C32.0281 10.1601 31.3344 9.69832 30.4094 9.35196C29.0219 8.77467 27.5187 8.54376 25.7844 8.54376C22.2 8.54376 17.8063 9.81378 12.7188 12.3538C12.2562 12.0074 11.6781 11.892 11.1 11.892C9.59688 11.892 8.325 13.162 8.325 14.6629C8.325 15.4711 8.67188 16.2793 9.36563 16.7412L1.04062 36.4842H0.69375C0.346875 36.4842 0 36.7151 0 37.1769C0 43.4115 5.0875 48.4916 11.3313 48.4916C17.575 48.4916 22.6625 43.4115 22.6625 37.1769C22.6625 36.8305 22.3156 36.4842 21.9688 36.4842H21.6219L13.0656 16.7412C13.5281 16.2793 13.875 15.702 13.9906 15.1248C18.7313 12.7002 22.7781 11.4302 26.0156 11.4302C27.2875 11.4302 28.4437 11.6611 29.3687 12.0074C30.1781 12.3538 30.8719 12.8156 31.45 13.3929C31.3344 13.7393 31.3344 14.2011 31.3344 14.5475C31.3344 16.9721 32.9531 19.1657 35.2656 19.9739L34.6875 52.7635C31.7969 53.5717 29.6 55.8808 29.1375 58.5363H23.125C21.275 58.5363 19.7719 60.0372 19.7719 61.8845V62H54.3438V61.8845C54.3438 60.0372 52.8406 58.5363 50.9906 58.5363H44.9781C44.5156 55.7654 42.3187 53.5717 39.4281 52.7635L38.85 19.9739C41.1625 19.1657 42.7812 17.0875 42.7812 14.5475C42.7812 14.2011 42.7813 13.8547 42.6656 13.3929C43.2438 12.8156 43.9375 12.2384 44.7469 12.0074C45.6719 11.6611 46.8281 11.4302 48.1 11.4302C51.3375 11.4302 55.2688 12.7002 60.0094 15.0093C60.125 15.702 60.4719 16.2793 60.9344 16.7412L52.3781 36.4842H52.0312C51.6844 36.4842 51.3375 36.8305 51.3375 37.1769C51.3375 43.4115 56.425 48.4916 62.6688 48.4916C68.9125 48.4916 74 43.4115 74 37.1769C74 36.7151 73.6531 36.4842 73.3063 36.4842ZM19.8875 36.4842H2.775L11.1 17.3184C11.2156 17.3184 11.3312 17.3184 11.4469 17.3184C11.5625 17.3184 11.6781 17.3184 11.7937 17.3184L19.8875 36.4842ZM54.1125 36.4842L62.4375 17.3184C62.5531 17.3184 62.6687 17.3184 62.7844 17.3184C62.9 17.3184 63.0156 17.3184 63.1312 17.3184L71.4562 36.4842H54.1125Z" fill="var(--fill-0, white)"/>
</svg>
