<svg preserveAspectRatio="none" width="100%" height="100%" overflow="visible" style="display: block;" viewBox="0 0 47 59" fill="none" xmlns="http://www.w3.org/2000/svg">
<path id="Vector" d="M38.1875 20.65V14.75C38.1875 6.49 31.725 0 23.5 0C15.275 0 8.8125 6.49 8.8125 14.75V20.65C3.81875 20.65 0 24.485 0 29.5V50.15C0 55.165 3.81875 59 8.8125 59H38.1875C43.1813 59 47 55.165 47 50.15V29.5C47 24.485 43.1813 20.65 38.1875 20.65ZM14.6875 14.75C14.6875 9.735 18.5062 5.9 23.5 5.9C28.4938 5.9 32.3125 9.735 32.3125 14.75V20.65H14.6875V14.75ZM26.7313 39.825L26.4375 40.12V44.25C26.4375 46.02 25.2625 47.2 23.5 47.2C21.7375 47.2 20.5625 46.02 20.5625 44.25V40.12C18.8 38.35 18.5062 35.695 20.2687 33.925C22.0312 32.155 24.675 31.86 26.4375 33.63C28.2 35.105 28.4938 38.055 26.7313 39.825Z" fill="var(--fill-0, white)"/>
</svg>
